<svg xmlns="http://www.w3.org/2000/svg" width="64" height="64" viewBox="0 0 64 64" fill="none">
  <rect width="64" height="64" rx="10" fill="#e8e8e8" />
  <g fill="#2f2f2f">
    <path d="M32 14c-4.6 4.2-7.2 8.2-7.2 13A7.2 7.2 0 0 0 32 34.2a7.2 7.2 0 0 0 7.2-7.2c0-4.8-2.6-8.8-7.2-13z" />
    <path d="M22.8 23.8c-3.2 1.8-5.4 4.6-5.4 8.4 0 4.9 3.8 8.8 8.6 9.2-1.9-2.2-2.8-4.7-2.8-7.3 0-3.8 1.9-7.3 5-10.3-1.8-.4-3.6-.2-5.4 0z" />
    <path d="M41.2 23.8c3.2 1.8 5.4 4.6 5.4 8.4 0 4.9-3.8 8.8-8.6 9.2 1.9-2.2 2.8-4.7 2.8-7.3 0-3.8-1.9-7.3-5-10.3 1.8-.4 3.6-.2 5.4 0z" />
  </g>
</svg>